<?xml version="1.0" encoding="UTF-8" standalone="no"?>
<svg width="456" height="456" viewBox="0 0 456 456" version="1.1" xmlns="http://www.w3.org/2000/svg">
    <!-- Single hero card on a transparent background (splash colour shows behind) -->
    <g transform="rotate(-4 228 228)">
        <rect x="138" y="96" width="180" height="264" rx="18" fill="#000000" opacity="0.18" transform="translate(0,10)" />
        <rect x="138" y="96" width="180" height="264" rx="18" fill="#FFFFFF" stroke="#E2E6EC" stroke-width="2" />

        <g transform="translate(228,171) scale(2.6875) translate(-16,-14.8)">
            <path d="M23.6,0c-3.4,0-6.3,2.7-7.6,5.6C14.7,2.7,11.8,0,8.4,0C3.8,0,0,3.8,0,8.4c0,9.4,9.5,11.9,16,21.2c6.1-9.3,16-12,16-21.2C32,3.8,28.2,0,23.6,0z" fill="#E11D2A" />
        </g>

        <g fill="none" stroke="#0B6B34" stroke-width="13" stroke-linecap="round" stroke-linejoin="round">
            <path d="M218,267 C197,263 182,284 182,308 C182,327 196,334 206,334 C218,334 226,323 226,310 C226,299 217,291 205,291 C195,291 186,298 183,307" />
            <path d="M268,267 C247,263 232,284 232,308 C232,327 246,334 256,334 C268,334 276,323 276,310 C276,299 267,291 255,291 C245,291 236,298 233,307" />
        </g>

        <g transform="translate(170,134) scale(0.78) translate(-16,-14.8)">
            <path d="M23.6,0c-3.4,0-6.3,2.7-7.6,5.6C14.7,2.7,11.8,0,8.4,0C3.8,0,0,3.8,0,8.4c0,9.4,9.5,11.9,16,21.2c6.1-9.3,16-12,16-21.2C32,3.8,28.2,0,23.6,0z" fill="#E11D2A" />
        </g>
    </g>
</svg>
